<?xml version="1.0" standalone="no"?>
<!DOCTYPE svg PUBLIC "-//W3C//DTD SVG 20010904//EN"
 "http://www.w3.org/TR/2001/REC-SVG-20010904/DTD/svg10.dtd">
<svg version="1.0" xmlns="http://www.w3.org/2000/svg"
 width="512.000000pt" height="512.000000pt" viewBox="0 0 512.000000 512.000000"
 preserveAspectRatio="xMidYMid meet">

<g transform="translate(0.000000,512.000000) scale(0.100000,-0.100000)"
fill="#000000" stroke="none">
<path d="M4500 4415 c-36 -8 -807 -156 -1715 -330 -907 -174 -1665 -320 -1682
-326 -44 -14 -73 -53 -73 -98 0 -45 23 -79 65 -97 30 -12 154 10 1716 310 926
178 1685 323 1686 322 1 -1 353 -1828 379 -1971 3 -16 8 -38 10 -47 4 -13 -4
-18 -33 -24 -60 -11 -93 -32 -109 -71 -20 -46 -10 -86 28 -118 36 -31 64 -31
194 -5 105 22 138 42 149 90 4 16 -45 293 -124 706 -72 373 -169 882 -216
1129 -47 248 -91 463 -97 479 -13 32 -62 67 -93 65 -11 -1 -49 -7 -85 -14z"/>
<path d="M3720 3749 c-300 -32 -1085 -115 -1744 -184 -766 -81 -1209 -131
-1226 -140 -30 -16 -50 -53 -50 -96 0 -39 56 -99 92 -99 24 0 235 22 2407 250
575 60 1046 108 1049 106 5 -5 220 -2050 216 -2055 -2 -2 -34 -7 -72 -11 -104
-11 -142 -41 -142 -110 0 -44 23 -78 65 -96 45 -18 288 7 325 35 58 42 63 -36
-69 1221 -67 635 -126 1167 -132 1182 -17 42 -50 58 -116 57 -32 -1 -303 -28
-603 -60z"/>
<path d="M38 3161 l-33 -29 -3 -1176 c-3 -1294 -6 -1218 58 -1251 26 -13 262
-15 2040 -15 1743 0 2015 2 2046 15 68 28 64 -41 64 1235 0 1240 2 1197 -51
1234 -22 15 -193 16 -2056 16 l-2033 0 -32 -29z m3957 -1221 l0 -1035 -1890 0
-1890 0 -3 1038 -2 1037 1892 -2 1893 -3 0 -1035z"/>
<path d="M743 2850 c-37 -22 -53 -48 -53 -86 0 -51 -25 -109 -65 -150 -39 -41
-72 -56 -159 -69 -24 -4 -50 -18 -68 -35 l-28 -28 0 -540 0 -540 29 -31 c20
-21 38 -31 58 -31 16 0 52 -7 80 -15 83 -25 153 -117 153 -203 0 -31 26 -79
49 -92 13 -7 462 -10 1368 -10 1262 0 1349 2 1369 18 30 24 44 55 44 94 0 51
46 135 89 164 21 13 64 29 97 35 32 7 70 16 82 22 52 24 52 26 52 587 0 453
-2 525 -16 551 -16 32 -66 59 -109 59 -92 0 -194 104 -195 198 0 18 -7 46 -15
62 -33 64 57 60 -1402 60 -1297 0 -1329 -1 -1360 -20z m2578 -210 c5 -8 18
-37 30 -64 33 -72 117 -157 192 -194 36 -18 70 -32 76 -32 8 0 11 -111 11
-404 l0 -404 -73 -34 c-110 -53 -193 -147 -231 -260 -5 -17 -72 -18 -1220 -18
l-1214 0 -31 65 c-39 84 -117 166 -194 205 -33 16 -66 30 -74 30 -11 0 -13 74
-13 408 l0 408 66 28 c112 49 198 146 238 269 5 16 70 17 1217 15 1065 -3
1213 -5 1220 -18z"/>
<path d="M1980 2514 c-109 -23 -205 -77 -291 -163 -117 -117 -169 -243 -169
-411 0 -104 19 -181 67 -273 72 -136 181 -228 333 -280 192 -67 413 -23 572
113 65 56 143 177 170 263 34 106 32 275 -4 369 -38 101 -86 174 -157 240
-142 130 -334 183 -521 142z m275 -233 c109 -50 177 -130 210 -245 48 -165
-44 -360 -203 -434 -50 -24 -70 -27 -157 -27 -87 0 -107 3 -157 27 -79 37
-142 98 -181 177 -29 60 -32 74 -32 161 0 82 4 103 27 152 90 193 307 275 493
189z"/>
</g>
</svg>
