<?xml version="1.0" standalone="no"?>
<!DOCTYPE svg PUBLIC "-//W3C//DTD SVG 20010904//EN"
 "http://www.w3.org/TR/2001/REC-SVG-20010904/DTD/svg10.dtd">
<svg version="1.0" xmlns="http://www.w3.org/2000/svg"
 width="512.000000pt" height="512.000000pt" viewBox="0 0 512.000000 512.000000"
 preserveAspectRatio="xMidYMid meet">

<g transform="translate(0.000000,512.000000) scale(0.100000,-0.100000)"
fill="#000000" stroke="none">
<path d="M2095 4945 c-17 -16 -25 -35 -25 -59 0 -33 -3 -36 -42 -46 -471 -121
-839 -333 -1156 -665 -179 -188 -340 -425 -444 -655 -43 -96 -122 -325 -148
-427 -10 -40 -13 -43 -46 -43 -24 0 -43 -8 -59 -25 l-25 -24 0 -434 c0 -424 0
-435 21 -461 16 -20 29 -26 59 -26 38 0 40 -2 50 -42 56 -220 120 -393 207
-558 322 -607 860 -1027 1541 -1200 39 -10 42 -13 42 -46 0 -24 8 -43 25 -59
l24 -25 441 0 441 0 24 25 25 24 0 453 0 454 98 38 c201 78 386 201 542 359
125 127 208 246 293 419 l72 147 318 1 317 0 -6 -27 c-12 -53 -95 -298 -104
-307 -5 -5 -69 -3 -153 4 -79 7 -155 10 -168 7 -19 -5 -36 -32 -81 -125 -31
-65 -85 -156 -120 -203 -115 -153 -318 -340 -498 -459 -87 -57 -110 -79 -110
-105 0 -11 18 -75 40 -140 22 -66 37 -121 33 -123 -5 -2 -46 -22 -93 -45 -79
-39 -85 -44 -88 -76 -3 -24 3 -40 20 -58 32 -34 61 -28 221 51 390 191 689
453 929 810 128 191 251 463 304 669 38 150 31 137 74 137 30 0 43 6 59 26 21
26 21 37 21 461 l0 434 -25 24 c-16 17 -35 25 -59 25 -33 0 -36 3 -46 43 -178
698 -623 1253 -1259 1569 -121 60 -357 146 -488 178 -40 10 -43 13 -43 46 0
24 -8 43 -25 59 l-24 25 -441 0 -441 0 -24 -25z m815 -622 l0 -488 90 -139 90
-139 0 -70 c0 -38 -3 -67 -7 -65 -5 2 -32 16 -61 31 -143 75 -327 113 -506
104 -139 -7 -254 -35 -373 -92 l-93 -44 0 72 0 72 90 139 90 139 0 484 0 483
340 0 340 0 0 -487z m-840 84 l0 -284 -42 -13 c-24 -7 -83 -31 -133 -54 -392
-184 -701 -525 -835 -921 l-27 -80 -302 -3 -301 -2 6 27 c12 54 95 298 104
307 5 5 73 4 164 -4 121 -11 158 -11 169 -1 8 6 40 63 71 125 30 63 83 151
118 197 115 153 318 340 498 459 86 57 110 79 110 104 0 12 -15 64 -34 116
-54 153 -55 136 11 166 118 53 372 141 416 144 4 0 7 -128 7 -283z m1235 208
c38 -14 74 -30 79 -35 5 -5 3 -69 -4 -153 -7 -79 -10 -155 -7 -168 5 -19 32
-36 125 -81 65 -31 156 -85 203 -120 153 -115 340 -318 459 -498 57 -87 79
-110 105 -110 11 0 74 18 140 40 65 22 120 38 122 37 21 -22 116 -271 148
-389 l24 -88 -302 0 -302 0 -24 78 c-39 122 -142 316 -230 433 -182 242 -463
452 -728 545 l-53 19 0 282 0 282 88 -24 c48 -13 118 -35 157 -50z m445 -230
c183 -119 340 -257 471 -416 101 -121 223 -300 212 -310 -9 -8 -110 -39 -128
-39 -6 0 -34 33 -62 73 -181 258 -444 503 -651 606 l-74 36 7 65 c4 36 9 75
12 88 l5 22 57 -31 c31 -18 99 -60 151 -94z m-2273 -10 l21 -65 -111 -84
c-276 -209 -458 -406 -574 -626 l-40 -74 -44 2 c-67 4 -119 13 -119 21 0 17
125 216 194 309 87 117 247 286 358 379 73 61 275 203 288 203 3 0 15 -29 27
-65z m603 -452 c0 -29 -18 -64 -90 -175 l-90 -138 0 -148 0 -148 -37 -36 -38
-37 -150 -3 -150 -3 -141 -92 c-119 -79 -184 -110 -184 -88 0 18 59 154 101
235 135 258 360 478 623 610 143 72 156 74 156 23z m1088 -4 c254 -114 496
-337 639 -588 39 -68 99 -201 117 -258 14 -44 -36 -25 -179 67 l-140 90 -145
0 -144 0 -38 37 -38 37 0 146 0 145 -90 139 c-79 122 -90 145 -90 183 0 51 -1
51 108 2z m-429 -529 c179 -36 359 -145 477 -288 64 -77 144 -236 170 -337 25
-96 26 -314 1 -404 -87 -320 -308 -541 -628 -628 -89 -24 -309 -24 -398 0
-376 103 -625 403 -648 779 -15 244 73 472 248 647 207 207 489 291 778 231z
m969 -400 l139 -90 486 0 487 0 0 -333 0 -334 -142 -6 c-79 -4 -298 -7 -487
-7 l-344 0 -139 -90 -139 -90 -69 0 c-39 0 -70 2 -70 5 0 3 7 16 15 28 26 40
73 164 96 254 33 126 33 340 0 466 -23 90 -70 214 -96 254 -8 12 -15 25 -15
28 0 3 31 5 70 5 l69 0 139 -90z m-2059 -5 c-131 -279 -128 -609 7 -877 19
-37 34 -70 34 -73 0 -3 -30 -5 -67 -5 l-66 0 -135 87 c-97 62 -148 89 -181 94
-25 4 -247 8 -493 8 l-448 1 0 335 0 335 485 0 485 0 138 90 137 90 72 0 72 0
-40 -85z m-281 -1005 l139 -90 144 0 145 0 37 -38 38 -39 2 -149 2 -149 71
-105 c38 -58 74 -111 78 -117 9 -17 -66 16 -171 73 -208 113 -397 290 -529
494 -26 41 -55 80 -63 87 -39 30 -104 1 -117 -52 -7 -29 31 -99 116 -214 180
-244 444 -443 728 -552 l62 -24 0 -332 c0 -295 -2 -333 -16 -333 -19 0 -283
86 -303 99 -12 8 -12 31 2 156 18 167 14 190 -35 207 -242 84 -535 343 -746
660 -42 64 -73 100 -88 104 -18 5 -144 -31 -260 -73 -21 -8 -142 296 -172 435
l-10 42 404 0 403 0 139 -90z m2471 -11 c-114 -228 -289 -423 -506 -563 -75
-49 -241 -132 -248 -125 -2 3 30 56 71 119 l74 114 0 145 0 145 37 38 37 38
146 0 145 0 139 90 c77 50 141 88 143 86 2 -2 -15 -42 -38 -87z m-1741 -302
c144 -75 328 -113 506 -104 141 8 255 36 373 92 l93 44 0 -72 0 -72 -90 -139
-90 -139 0 -484 0 -483 -340 0 -340 0 0 488 0 487 -90 139 -90 139 0 70 c0 38
3 67 8 65 4 -2 31 -16 60 -31z m2408 -90 c8 -7 -134 -233 -209 -333 -93 -124
-256 -292 -372 -384 -94 -74 -255 -181 -265 -175 -13 8 -43 126 -34 134 5 4
52 39 104 78 131 98 265 219 350 316 83 95 188 248 224 328 l26 55 86 -8 c48
-4 88 -9 90 -11z m-3618 -184 c200 -268 428 -475 643 -584 l58 -29 -5 -72 c-3
-40 -7 -79 -10 -86 -4 -15 -71 20 -219 116 -247 160 -474 388 -629 634 -26 40
-46 78 -46 83 0 10 82 43 111 44 10 1 50 -44 97 -106z"/>
<path d="M2426 4267 c-15 -15 -26 -38 -26 -52 0 -38 117 -317 141 -337 45 -38
119 -5 119 54 0 28 -115 315 -133 335 -7 7 -27 15 -44 19 -26 5 -37 1 -57 -19z"/>
<path d="M2411 3134 c-89 -24 -171 -74 -246 -149 -115 -115 -165 -234 -165
-395 0 -161 50 -280 165 -395 115 -115 234 -165 395 -165 161 0 280 50 395
165 115 115 165 234 165 395 0 161 -50 279 -165 395 -76 77 -157 125 -250 150
-74 19 -222 19 -294 -1z m321 -171 c88 -41 160 -113 201 -201 30 -62 32 -75
32 -172 0 -97 -2 -110 -32 -172 -19 -40 -53 -89 -83 -118 -29 -30 -78 -64
-118 -83 -62 -30 -75 -32 -172 -32 -97 0 -110 2 -172 32 -88 41 -160 113 -201
201 -30 62 -32 75 -32 172 0 94 3 111 28 164 51 110 118 174 234 222 50 21 71
24 153 22 83 -3 104 -7 162 -35z"/>
<path d="M4040 2659 c-80 -32 -153 -69 -162 -80 -38 -45 -5 -119 53 -119 13 0
93 28 177 62 125 51 156 68 168 90 8 15 14 34 14 43 0 26 -46 65 -77 65 -15
-1 -93 -28 -173 -61z"/>
<path d="M1005 2596 c-152 -63 -174 -80 -175 -129 0 -27 45 -67 75 -67 32 0
311 113 337 137 44 40 4 124 -58 122 -16 0 -96 -29 -179 -63z"/>
<path d="M2485 1245 c-14 -13 -25 -35 -25 -48 0 -37 118 -320 141 -339 45 -38
119 -5 119 53 0 38 -117 322 -141 342 -30 24 -66 21 -94 -8z"/>
</g>
</svg>
