<?xml version="1.0" standalone="no"?>
<!DOCTYPE svg PUBLIC "-//W3C//DTD SVG 20010904//EN"
 "http://www.w3.org/TR/2001/REC-SVG-20010904/DTD/svg10.dtd">
<svg version="1.0" xmlns="http://www.w3.org/2000/svg"
 width="512.000000pt" height="512.000000pt" viewBox="0 0 512.000000 512.000000"
 preserveAspectRatio="xMidYMid meet">

<g transform="translate(0.000000,512.000000) scale(0.100000,-0.100000)"
fill="#000000" stroke="none">
<path d="M2285 5075 c-210 -34 -378 -90 -575 -191 -352 -181 -629 -466 -805
-829 -245 -505 -245 -1027 0 -1541 101 -213 212 -369 376 -533 51 -50 218
-190 373 -310 285 -222 400 -328 473 -436 56 -84 115 -205 148 -305 58 -177
90 -223 180 -266 91 -43 195 -28 271 39 54 48 64 66 115 214 68 198 143 324
268 456 42 44 199 175 360 300 156 122 321 258 366 302 269 266 451 602 532
985 24 112 27 147 27 325 0 179 -3 213 -27 326 -38 181 -77 293 -162 464 -89
178 -175 302 -309 442 -270 283 -601 467 -981 544 -143 29 -490 36 -630 14z
m441 -1181 c273 -138 308 -154 402 -173 324 -69 765 -295 853 -437 19 -31 19
-35 4 -64 -21 -40 -157 -148 -266 -210 -162 -93 -436 -200 -600 -234 -197 -40
-448 -46 -601 -12 l-68 15 -156 -90 c-86 -49 -158 -89 -160 -89 -2 0 -5 64 -6
142 l-3 143 -95 54 c-52 29 -151 87 -218 127 -68 41 -129 71 -135 67 -7 -3
-123 -87 -258 -185 -136 -98 -254 -178 -262 -178 -40 0 -35 32 18 139 58 116
89 206 99 292 12 97 -29 248 -112 417 -40 81 -43 112 -11 112 11 0 135 -82
276 -182 142 -101 260 -182 263 -181 3 1 50 32 105 68 133 89 348 194 495 241
l120 39 0 168 c0 93 4 167 8 165 5 -1 143 -71 308 -154z"/>
<path d="M3290 3532 c-19 -9 -45 -33 -58 -52 -20 -29 -23 -44 -19 -89 3 -48 9
-59 45 -93 36 -33 47 -38 90 -38 156 0 209 197 72 268 -53 27 -84 28 -130 4z"/>
<path d="M2208 219 c-192 -16 -361 -54 -381 -86 -24 -39 102 -78 338 -105 145
-16 647 -16 795 1 208 23 347 62 338 94 -12 40 -165 77 -393 97 -137 11 -553
11 -697 -1z"/>
</g>
</svg>
